<svg id="Layer_1" data-name="Layer 1" xmlns="http://www.w3.org/2000/svg" viewBox="0 0 482.15 472.23"><defs><style>.cls-1{opacity:0.5;}.cls-2{fill:#75aed9;}.cls-3{fill:#1f77b4;}.cls-3,.cls-4,.cls-6,.cls-7{stroke:#fff;stroke-width:2.23px;}.cls-17,.cls-18,.cls-19,.cls-20,.cls-21,.cls-3,.cls-4,.cls-5,.cls-6,.cls-7{stroke-miterlimit:4.45;}.cls-4{fill:#d62728;}.cls-17,.cls-18,.cls-19,.cls-20,.cls-21,.cls-5{fill:#1f1f1f;stroke-width:2px;}.cls-5{stroke:#a74798;}.cls-6{fill:#2ca02c;}.cls-7{fill:#9467bd;}.cls-15,.cls-8{fill:none;}.cls-10,.cls-13,.cls-9{isolation:isolate;}.cls-10{font-size:5px;}.cls-10,.cls-13,.cls-22{fill:#fff;font-family:Helvetica;}.cls-11{letter-spacing:-0.09em;}.cls-12{letter-spacing:-0.04em;}.cls-13{font-size:5px;}.cls-14{letter-spacing:-0.11em;}.cls-15{stroke:#000;stroke-miterlimit:4.22;stroke-opacity:0.25;stroke-width:1.06px;}.cls-16{letter-spacing:-0.02em;}.cls-17{stroke:#e994d1;}.cls-18{stroke:#dccb7c;}.cls-19{stroke:#6696e2;}.cls-20{stroke:#229d47;}.cls-21{stroke:#d85a2b;}.cls-22{font-size:8px;}.cls-23{letter-spacing:-0.04em;}</style></defs><g id="curves" class="cls-1"><g id="connections"><rect class="cls-2" x="461.89" y="496.21" width="40.79" height="1.11" transform="translate(-197.8 648.13) rotate(-75.89)"/><path class="cls-2" d="M487.06,477.51A193.63,193.63,0,0,0,449.37,468a196.3,196.3,0,0,0-79.12,4.55l-.28-1.08a197.6,197.6,0,0,1,79.57-4.57,195.24,195.24,0,0,1,37.9,9.61Z" transform="translate(-80.74 -195.27)"/><path class="cls-2" d="M527.7,499.5a65.81,65.81,0,0,1-40.87-22.15l.83-.73A65.54,65.54,0,0,0,512,494.12a64.87,64.87,0,0,0,15.87,4.27Z" transform="translate(-80.74 -195.27)"/><path class="cls-2" d="M486.69,477a81.4,81.4,0,0,1,3.4-26.61A82.81,82.81,0,0,1,509.81,417l.8.78a81.62,81.62,0,0,0-19.45,33A80.29,80.29,0,0,0,487.8,477Z" transform="translate(-80.74 -195.27)"/><path class="cls-2" d="M534.8,515.2a58.62,58.62,0,0,1-26.9-10.26,59.53,59.53,0,0,1-21.18-27.76l1-.39A58.31,58.31,0,0,0,508.54,504a57.66,57.66,0,0,0,26.39,10.07Z" transform="translate(-80.74 -195.27)"/><path class="cls-2" d="M487.72,477.28l-1-.59A188.17,188.17,0,0,1,535.53,424l.66.9a187.07,187.07,0,0,0-48.47,52.41Z" transform="translate(-80.74 -195.27)"/><path class="cls-2" d="M525.83,527.21A39.74,39.74,0,0,1,505.61,521c-8.61-5.61-14.62-14.82-17.36-26.64a62.33,62.33,0,0,1-1.56-17.39l1.11.09a61.45,61.45,0,0,0,1.53,17.05c2.72,11.7,8.4,20.43,16.89,25.95a38.43,38.43,0,0,0,19.66,6.06Z" transform="translate(-80.74 -195.27)"/><path class="cls-2" d="M487.41,477.52l-.33-1.07c15.59-4.77,31.18-10.17,46.35-16.06,5-1.92,10-3.94,14.92-6l.43,1c-4.95,2.06-10,4.08-14.95,6C518.64,467.33,503,472.74,487.41,477.52Z" transform="translate(-80.74 -195.27)"/><path class="cls-2" d="M530.86,487.57c-1.3,0-2.59,0-3.87-.08a102,102,0,0,1-40-10l.48-1a101.05,101.05,0,0,0,39.54,9.9,98.75,98.75,0,0,0,15.46-.62l.13,1.11A100.57,100.57,0,0,1,530.86,487.57Z" transform="translate(-80.74 -195.27)"/><path class="cls-2" d="M489.51,477.55h-2.27v-1.11c14.23.08,28.62-.57,42.76-1.91,5.37-.51,10.82-1.13,16.17-1.84l.15,1.1c-5.37.72-10.83,1.34-16.22,1.85C516.68,476.9,503,477.55,489.51,477.55Z" transform="translate(-80.74 -195.27)"/><path class="cls-2" d="M452.41,490.65l-.86-.72a38.18,38.18,0,0,1,8.42-7.5c10.36-6.75,21.57-6.66,27.34-6l-.13,1.11c-5.61-.64-16.54-.74-26.61,5.83A36.82,36.82,0,0,0,452.41,490.65Z" transform="translate(-80.74 -195.27)"/><path class="cls-2" d="M428.09,534.44a99.89,99.89,0,0,1-15.32-1.19l.17-1.1a93.53,93.53,0,0,0,40.85-2.47,90.27,90.27,0,0,0,12.66-4.76l.47,1a91.35,91.35,0,0,1-12.82,4.83A92.32,92.32,0,0,1,428.09,534.44Z" transform="translate(-80.74 -195.27)"/><path class="cls-2" d="M364.1,470.43l-1-.39c3.25-8.65,6.81-17.31,10.58-25.72a455,455,0,0,1,33.58-61.65l.93.6a455,455,0,0,0-33.49,61.5C370.9,453.17,367.35,461.8,364.1,470.43Z" transform="translate(-80.74 -195.27)"/><path class="cls-2" d="M263.12,541.3l-.82-.75a235.3,235.3,0,0,1,95.08-63.14l.38,1a234.32,234.32,0,0,0-94.64,62.84Z" transform="translate(-80.74 -195.27)"/><rect class="cls-2" x="243.85" y="437.62" width="1.11" height="69.98" transform="translate(-368.29 287.81) rotate(-63.78)"/><path class="cls-2" d="M413.1,533.2l-.48-1A72.61,72.61,0,0,0,444,503.09l1,.55a73.77,73.77,0,0,1-31.9,29.56Z" transform="translate(-80.74 -195.27)"/><rect class="cls-2" x="292.02" y="434.38" width="139.02" height="1.11" transform="translate(-284.46 220.67) rotate(-48.34)"/><path class="cls-2" d="M408.05,383.4l-.72-.85a493,493,0,0,0,56.76-57c9.61-11.39,18.82-23.37,27.37-35.62l.91.64c-8.57,12.27-17.79,24.28-27.43,35.7A495.29,495.29,0,0,1,408.05,383.4Z" transform="translate(-80.74 -195.27)"/><path class="cls-2" d="M407.22,383.27A229.08,229.08,0,0,1,383.35,334c-2.42-7.05-4.51-14.31-6.22-21.57l1.09-.26c1.7,7.23,3.78,14.45,6.18,21.47a227.57,227.57,0,0,0,23.76,49.06Z" transform="translate(-80.74 -195.27)"/><path class="cls-2" d="M287.52,486.62l-.87-.7A433,433,0,0,1,407.41,382.49l.56,1A431.85,431.85,0,0,0,287.52,486.62Z" transform="translate(-80.74 -195.27)"/><rect class="cls-2" x="377.11" y="352.1" width="1.11" height="60.06" transform="translate(-95.66 553.63) rotate(-88.39)"/><path class="cls-2" d="M408.24,383.06l-1.1-.18A400.86,400.86,0,0,0,408.49,258c-1.75-11.81-4.08-23.7-6.92-35.33l1.09-.27c2.84,11.67,5.18,23.59,6.93,35.44A402.12,402.12,0,0,1,408.24,383.06Z" transform="translate(-80.74 -195.27)"/><path class="cls-2" d="M407.28,383.35A329.16,329.16,0,0,0,365.2,345c-4.2-3.2-8.54-6.35-12.9-9.36l.63-.92c4.38,3,8.73,6.18,12.94,9.4a330.64,330.64,0,0,1,42.23,38.51Z" transform="translate(-80.74 -195.27)"/><path class="cls-2" d="M446.35,385.75a336.61,336.61,0,0,1-38.73-2.23l.13-1.1a336.35,336.35,0,0,0,72.81.47,334.61,334.61,0,0,0,49.8-9l.28,1.08a337,337,0,0,1-50,9A335.84,335.84,0,0,1,446.35,385.75Z" transform="translate(-80.74 -195.27)"/><path class="cls-2" d="M407.14,383A419,419,0,0,0,389.91,307c-1.35-4.13-2.79-8.3-4.28-12.39l1.05-.38c1.49,4.1,2.93,8.28,4.29,12.42a419.66,419.66,0,0,1,17.27,76.28Z" transform="translate(-80.74 -195.27)"/><path class="cls-2" d="M407.26,383.32c-11.21-13.78-22.18-28.05-32.59-42.43-5.3-7.33-10.58-14.83-15.67-22.31l.92-.63c5.09,7.47,10.35,15,15.65,22.28,10.4,14.37,21.35,28.63,32.55,42.39Z" transform="translate(-80.74 -195.27)"/><path class="cls-2" d="M420.55,484.85A318.7,318.7,0,0,1,407.13,383l1.11,0a317.5,317.5,0,0,0,13.38,101.54Z" transform="translate(-80.74 -195.27)"/><path class="cls-2" d="M371,491.55l-1.1-.22c1.63-8.15,3.51-16.36,5.6-24.39a432.52,432.52,0,0,1,31.7-84.22l1,.5a431.17,431.17,0,0,0-31.62,84C374.48,475.23,372.6,483.42,371,491.55Z" transform="translate(-80.74 -195.27)"/><path class="cls-2" d="M455.18,414.27a116.15,116.15,0,0,0-11.57-10.84,117.36,117.36,0,0,0-36.1-19.93l.36-1.05a118.29,118.29,0,0,1,36.44,20.12A116.1,116.1,0,0,1,456,413.51Z" transform="translate(-80.74 -195.27)"/><path class="cls-2" d="M407.93,383.47l-.48-1a291.4,291.4,0,0,0,96.79-74.3l.85.72a292.36,292.36,0,0,1-97.16,74.58Z" transform="translate(-80.74 -195.27)"/><path class="cls-2" d="M421.69,411.38c-1.31-2-2.59-4.13-3.81-6.23a168.94,168.94,0,0,1-10.71-22l1-.42a167.5,167.5,0,0,0,10.65,21.83c1.21,2.09,2.48,4.16,3.77,6.18Z" transform="translate(-80.74 -195.27)"/><path class="cls-2" d="M409.55,383.54h-1.87v-1.11c29.69.26,57.54-6,83-18.66a175.83,175.83,0,0,0,30.29-19.19l.69.88a177.37,177.37,0,0,1-30.48,19.3A181.32,181.32,0,0,1,409.55,383.54Z" transform="translate(-80.74 -195.27)"/><path class="cls-2" d="M467,400.6c-4.62-1.43-9.29-2.85-13.86-4.22-15.07-4.5-30.42-8.83-45.62-12.87l.28-1.08c15.22,4.05,30.58,8.38,45.65,12.88,4.58,1.37,9.25,2.79,13.88,4.22Z" transform="translate(-80.74 -195.27)"/><path class="cls-2" d="M279.15,440.46l-.57-.95a580.78,580.78,0,0,1,129-57.07l.32,1.06a580.54,580.54,0,0,0-128.7,57Z" transform="translate(-80.74 -195.27)"/><path class="cls-2" d="M408.08,383.37l-.78-.8a269.4,269.4,0,0,0,68.07-107.89l1.05.35a270.36,270.36,0,0,1-68.34,108.34Z" transform="translate(-80.74 -195.27)"/><path class="cls-2" d="M342.64,400.54l-.43-1c6.52-2.77,13.24-5.27,20-7.42a233.37,233.37,0,0,1,45.44-9.67l.12,1.1a233.34,233.34,0,0,0-45.22,9.63C355.83,395.29,349.13,397.78,342.64,400.54Z" transform="translate(-80.74 -195.27)"/><path class="cls-2" d="M408.12,383.32l-.87-.7a236.22,236.22,0,0,0,51.21-124l1.11.12a237.56,237.56,0,0,1-51.45,124.61Z" transform="translate(-80.74 -195.27)"/><path class="cls-2" d="M393.79,488.09l-1.11,0c.53-13,1.54-26.17,3-39.09a557.54,557.54,0,0,1,11.49-66.11l1.08.26a557.2,557.2,0,0,0-11.46,66C395.32,462,394.32,475.1,393.79,488.09Z" transform="translate(-80.74 -195.27)"/><path class="cls-2" d="M448.05,429.27a183.21,183.21,0,0,0-40.71-45.86l.7-.87a184.28,184.28,0,0,1,41,46.14Z" transform="translate(-80.74 -195.27)"/><path class="cls-2" d="M408.24,383l-1.11,0a374.39,374.39,0,0,0-6.29-83.71c-1.72-9-3.8-18.07-6.19-26.95l1.07-.29c2.4,8.9,4.49,18,6.21,27A374.9,374.9,0,0,1,408.24,383Z" transform="translate(-80.74 -195.27)"/><path class="cls-2" d="M407.46,383.48a215.16,215.16,0,0,0-62.79-17.87l.14-1.11a216.28,216.28,0,0,1,63.11,18Z" transform="translate(-80.74 -195.27)"/><path class="cls-2" d="M408.21,383.16l-1-.37a334.49,334.49,0,0,0,17.38-77.14,335.59,335.59,0,0,0-.36-72.11l1.1-.12a335.21,335.21,0,0,1-17.07,149.74Z" transform="translate(-80.74 -195.27)"/><path class="cls-2" d="M407.34,383.4a200.36,200.36,0,0,0-64.07-34.81l.35-1.06a201.36,201.36,0,0,1,64.42,35Z" transform="translate(-80.74 -195.27)"/><path class="cls-2" d="M407.81,383.52l-.24-1.09a247.58,247.58,0,0,0,107.7-53.61l.72.85a248.86,248.86,0,0,1-108.18,53.85Z" transform="translate(-80.74 -195.27)"/><path class="cls-2" d="M408.17,383.25l-1-.56A245.5,245.5,0,0,0,438,292.5a241.75,241.75,0,0,0,1.82-43.31l1.11-.05a242.94,242.94,0,0,1-1.83,43.5A246.53,246.53,0,0,1,408.17,383.25Z" transform="translate(-80.74 -195.27)"/><path class="cls-2" d="M263.21,541.18l-1-.51a132.18,132.18,0,0,1,41.22-48l.64.91a129.68,129.68,0,0,0-12.31,10A133,133,0,0,0,263.21,541.18Z" transform="translate(-80.74 -195.27)"/><path class="cls-2" d="M263.25,541l-1.08-.23a170.11,170.11,0,0,1,18-47.55l1,.54A169.09,169.09,0,0,0,263.25,541Z" transform="translate(-80.74 -195.27)"/><path class="cls-2" d="M212.47,457.29c-2.49-9.88-4.91-19.94-7.18-29.88-1.94-8.5-3.82-17.13-5.59-25.65l1.09-.23c1.77,8.52,3.65,17.14,5.58,25.63,2.27,9.94,4.69,20,7.18,29.85Z" transform="translate(-80.74 -195.27)"/><path class="cls-2" d="M413.32,533l-.92-.63a56.9,56.9,0,0,0,10-32.71h1.12A58.06,58.06,0,0,1,413.32,533Z" transform="translate(-80.74 -195.27)"/><path class="cls-2" d="M412.61,533.19A146.57,146.57,0,0,1,369.5,500l.83-.74a145,145,0,0,0,15.88,15.28,146.5,146.5,0,0,0,26.9,17.62Z" transform="translate(-80.74 -195.27)"/><path class="cls-2" d="M262.22,541.18A90,90,0,0,1,252.11,503c-.86-25.56,9.75-45.06,16.16-54.4l.92.62c-6.33,9.24-16.82,28.5-16,53.75a89.06,89.06,0,0,0,10,37.75Z" transform="translate(-80.74 -195.27)"/><path class="cls-2" d="M217.66,457.82c-1.56,0-3.11,0-4.67-.11l0-1.12A92.71,92.71,0,0,0,264.64,444l.57,1a93.82,93.82,0,0,1-47.55,12.85Z" transform="translate(-80.74 -195.27)"/><path class="cls-2" d="M412.5,533.12a57.7,57.7,0,0,1-16.34-22.57,55.73,55.73,0,0,1-3.48-13.44l1.1-.15a55.44,55.44,0,0,0,3.41,13.18,56.73,56.73,0,0,0,16,22.13Z" transform="translate(-80.74 -195.27)"/><path class="cls-2" d="M370.64,550.42l-.4-1c7.42-2.83,14.89-5.77,22.2-8.74,6.72-2.73,13.51-5.57,20.2-8.45l.44,1c-6.69,2.88-13.49,5.73-20.22,8.46C385.54,544.65,378.06,547.59,370.64,550.42Z" transform="translate(-80.74 -195.27)"/><path class="cls-2" d="M485.77,542c-6.49,0-13-.21-19.48-.61a312.28,312.28,0,0,1-53.56-8.14l.26-1.08a309.23,309.23,0,0,0,53.37,8.1c7.6.48,15.32.68,22.92.59V542Z" transform="translate(-80.74 -195.27)"/><path class="cls-2" d="M369.3,575.88l-.67-.89c5.69-4.24,11.24-8.78,16.5-13.51a232.32,232.32,0,0,0,27.29-29.13l.88.69a234.6,234.6,0,0,1-27.42,29.27C380.59,567.06,375,571.62,369.3,575.88Z" transform="translate(-80.74 -195.27)"/><path class="cls-2" d="M494.13,587.42a185.93,185.93,0,0,1-81.69-54.35l.84-.74a185.06,185.06,0,0,0,81.2,54Z" transform="translate(-80.74 -195.27)"/><path class="cls-2" d="M433.54,617.82A182,182,0,0,1,412.3,532.7h1.12a180.42,180.42,0,0,0,21.11,84.6Z" transform="translate(-80.74 -195.27)"/><path class="cls-2" d="M484.87,573a312.35,312.35,0,0,1-72.34-39.89l.66-.9A311.46,311.46,0,0,0,485.28,572Z" transform="translate(-80.74 -195.27)"/><path class="cls-2" d="M503.6,550.52a258.19,258.19,0,0,1-90.94-17.3l.4-1a256.66,256.66,0,0,0,90.55,17.22Z" transform="translate(-80.74 -195.27)"/><path class="cls-2" d="M506.9,562.08a249.24,249.24,0,0,1-94.31-28.89l.53-1A248.48,248.48,0,0,0,507,561Z" transform="translate(-80.74 -195.27)"/><path class="cls-2" d="M359.61,650.42l-1.07-.29A398.74,398.74,0,0,1,412.4,532.39l.92.62a397.65,397.65,0,0,0-53.71,117.41Z" transform="translate(-80.74 -195.27)"/><path class="cls-2" d="M392.36,644.88l-1.11-.08a517.47,517.47,0,0,1,10-69.39c3.07-14.37,6.81-28.8,11.11-42.87l1.06.32c-4.29,14-8,28.44-11.09,42.78A518.68,518.68,0,0,0,392.36,644.88Z" transform="translate(-80.74 -195.27)"/><path class="cls-2" d="M352.58,538.48h-.69c-8.07,0-16.25-.31-24.33-.89l.08-1.11c8.05.57,16.21.88,24.25.89a353.84,353.84,0,0,0,60.87-5.21l.19,1.1A353.2,353.2,0,0,1,352.58,538.48Z" transform="translate(-80.74 -195.27)"/><path class="cls-2" d="M467.51,594.39c-5.61-4.56-11.09-9.41-16.29-14.41a269.2,269.2,0,0,1-38.83-47l.94-.61A267.7,267.7,0,0,0,452,579.17c5.18,5,10.64,9.81,16.22,14.36Z" transform="translate(-80.74 -195.27)"/><rect class="cls-2" x="363.64" y="546.81" width="53.59" height="1.11" transform="matrix(0.84, -0.55, 0.55, 0.84, -316.67, 107.74)"/><path class="cls-2" d="M454.78,607.82c-6.54-8.73-12.72-17.88-18.38-27.18a340.68,340.68,0,0,1-24.06-47.73l1-.42a339.49,339.49,0,0,0,24,47.57c5.64,9.28,11.8,18.39,18.32,27.09Z" transform="translate(-80.74 -195.27)"/><path class="cls-2" d="M412.79,533.25a150.29,150.29,0,0,1-23.81-5c-4.43-1.31-8.86-2.84-13.15-4.56l.41-1c4.27,1.71,8.66,3.24,13.06,4.53a148.05,148.05,0,0,0,23.63,4.94Z" transform="translate(-80.74 -195.27)"/><path class="cls-2" d="M262.94,541.44l-.45-1a78.37,78.37,0,0,1,31.85-6.85h.16a74.45,74.45,0,0,1,12.19,1l-.18,1.09a75.62,75.62,0,0,0-12-1h-.16A77.24,77.24,0,0,0,262.94,541.44Z" transform="translate(-80.74 -195.27)"/><rect class="cls-2" x="263.63" y="430.66" width="1.11" height="125.36" transform="translate(-371.88 228.91) rotate(-54.73)"/><path class="cls-2" d="M283.81,351.36A69,69,0,0,1,276.55,341a69.8,69.8,0,0,1-8.38-23.93l1.1-.17a67.85,67.85,0,0,0,15.39,33.7Z" transform="translate(-80.74 -195.27)"/><path class="cls-2" d="M182,321.6c-15.92,0-31.84-.4-47.67-1.2l0-1.12a939.8,939.8,0,0,0,99.73-.24c11.49-.64,23.13-1.5,34.59-2.57l.11,1.11c-11.48,1.07-23.13,1.93-34.64,2.57C216.85,321.12,199.41,321.6,182,321.6Z" transform="translate(-80.74 -195.27)"/><path class="cls-2" d="M268.59,317.56a149.11,149.11,0,0,1-64.35-34,143.66,143.66,0,0,1-21.34-24.44l.92-.63A142.18,142.18,0,0,0,205,282.74a148,148,0,0,0,63.87,33.74Z" transform="translate(-80.74 -195.27)"/><path class="cls-2" d="M269.18,317.34l-.91-.63c14.25-20.43,28.4-41.33,42.07-62.12,6-9.09,12-18.35,17.86-27.53l.94.6c-5.88,9.18-11.89,18.45-17.87,27.54C297.59,276,283.43,296.91,269.18,317.34Z" transform="translate(-80.74 -195.27)"/><path class="cls-2" d="M268.5,317.53A114,114,0,0,1,220.62,278a111.66,111.66,0,0,1-16.55-37.56l1.09-.26a110.72,110.72,0,0,0,16.37,37.19A113.16,113.16,0,0,0,269,316.52Z" transform="translate(-80.74 -195.27)"/><path class="cls-2" d="M268.71,317.58a570.81,570.81,0,0,1-71.4-6.53c-17.81-2.77-35.7-6.44-53.18-10.9l.28-1.08c17.44,4.45,35.3,8.11,53.07,10.88a568.58,568.58,0,0,0,71.26,6.52Z" transform="translate(-80.74 -195.27)"/><path class="cls-2" d="M284.88,319.16a84.76,84.76,0,0,1-16.26-1.59l.21-1.09a82.14,82.14,0,0,0,28.68.57,80.06,80.06,0,0,0,10-2.25l.32,1.07a82.88,82.88,0,0,1-10.14,2.28A81.63,81.63,0,0,1,284.88,319.16Z" transform="translate(-80.74 -195.27)"/><path class="cls-2" d="M269.26,317.16l-1.08-.27A283.82,283.82,0,0,1,320.62,210l.87.69a282.65,282.65,0,0,0-52.23,106.44Z" transform="translate(-80.74 -195.27)"/><rect class="cls-2" x="221.14" y="260.81" width="112.68" height="1.11" transform="translate(-104.54 299.63) rotate(-81.07)"/><path class="cls-2" d="M258.82,351.37l-1.11-.05a72.07,72.07,0,0,1,10.54-34.58l.95.57a70.91,70.91,0,0,0-10.38,34.06Z" transform="translate(-80.74 -195.27)"/><path class="cls-2" d="M268.65,317.58a253.85,253.85,0,0,1-101-37l.6-.94A252.28,252.28,0,0,0,268.8,316.47Z" transform="translate(-80.74 -195.27)"/><path class="cls-2" d="M144.56,341.24q-6.84,0-13.68-.27l0-1.11a338.22,338.22,0,0,0,83.51-7,338.15,338.15,0,0,0,54.09-16.32l.41,1a336.8,336.8,0,0,1-124.37,23.7Z" transform="translate(-80.74 -195.27)"/><path class="cls-2" d="M295,330.54a40.2,40.2,0,0,1-10.32-2.23,41.33,41.33,0,0,1-16.31-10.91l.81-.75A40.28,40.28,0,0,0,285,327.26a39.22,39.22,0,0,0,10,2.17Z" transform="translate(-80.74 -195.27)"/><path class="cls-2" d="M268.24,317.3c-16-28.39-23.79-57.85-23.31-87.56a160.17,160.17,0,0,1,1.3-17.75l1.1.14a155.65,155.65,0,0,0-1.28,17.63c-.49,29.51,7.31,58.78,23.16,87Z" transform="translate(-80.74 -195.27)"/><path class="cls-2" d="M268.82,317.57l-.19-1.09a92.7,92.7,0,0,0,39.54-16.84,91.58,91.58,0,0,0,23.25-25.33l.95.59a92.64,92.64,0,0,1-23.54,25.64A93.79,93.79,0,0,1,268.82,317.57Z" transform="translate(-80.74 -195.27)"/><rect class="cls-2" x="254.12" y="282.77" width="92.38" height="1.11" transform="translate(-192.52 113.36) rotate(-46.85)"/><rect class="cls-2" x="265.43" y="244.24" width="1.11" height="72.89" transform="translate(-101.04 -174.54) rotate(-4.3)"/><path class="cls-2" d="M268.31,317.4a203.4,203.4,0,0,1-45.44-82l1.07-.3a202.46,202.46,0,0,0,45.2,81.52Z" transform="translate(-80.74 -195.27)"/><path class="cls-2" d="M216.18,349.83l-.5-1c5.78-2.89,11.55-6,17.16-9.15a362,362,0,0,0,35.55-23.1l.66.89a363.16,363.16,0,0,1-35.66,23.18C227.77,343.84,222,346.93,216.18,349.83Z" transform="translate(-80.74 -195.27)"/><path class="cls-2" d="M229.56,372.64l-1-.44a161.13,161.13,0,0,1,42.77-58.76l.73.84a159.93,159.93,0,0,0-42.48,58.36Z" transform="translate(-80.74 -195.27)"/><path class="cls-2" d="M213.56,457.25l-1.09-.21c2.19-11.5,4.28-23.19,6.22-34.74,2.36-14,4.55-28.28,6.54-42.36l1.1.16c-2,14.09-4.18,28.35-6.54,42.38C217.85,434,215.75,445.74,213.56,457.25Z" transform="translate(-80.74 -195.27)"/><path class="cls-2" d="M307.71,630.19c-4.24-5.14-8.3-10.51-12.06-16a236.5,236.5,0,0,1-33.48-73.14l1.08-.29a235.11,235.11,0,0,0,33.32,72.8c3.74,5.44,7.78,10.79,12,15.9Z" transform="translate(-80.74 -195.27)"/><path class="cls-2" d="M318.82,585.89a112,112,0,0,1-22.69-11.09,113.52,113.52,0,0,1-33.88-33.57l.93-.61a112.48,112.48,0,0,0,33.55,33.24,111.3,111.3,0,0,0,22.46,11Z" transform="translate(-80.74 -195.27)"/><path class="cls-2" d="M204.9,625.86l-.93-.61c8.81-13.56,17.92-27.19,27.06-40.5,10.14-14.78,20.65-29.64,31.23-44.15l.9.66c-10.57,14.5-21.07,29.34-31.22,44.12C222.81,598.68,213.71,612.3,204.9,625.86Z" transform="translate(-80.74 -195.27)"/><path class="cls-2" d="M258.57,647.43c-1.05-16.14-1.38-32.51-1-48.67a542.35,542.35,0,0,1,4.56-57.91l1.1.15a542.71,542.71,0,0,0-4.55,57.79c-.4,16.12-.08,32.46,1,48.56Z" transform="translate(-80.74 -195.27)"/><path class="cls-2" d="M318.7,609.56a143,143,0,0,1-23.63-18.75,144.91,144.91,0,0,1-32.88-49.68l1-.41A143.39,143.39,0,0,0,295.86,590a141.72,141.72,0,0,0,23.44,18.61Z" transform="translate(-80.74 -195.27)"/><rect class="cls-2" x="163.23" y="566.64" width="106.42" height="1.11" transform="translate(-332.5 -14.53) rotate(-29.58)"/><path class="cls-2" d="M235,543.46q-3.07,0-6.14-.1a196.08,196.08,0,0,1-29.68-3.22l.2-1.1a194,194,0,0,0,63.24,1.34l.16,1.1A195.46,195.46,0,0,1,235,543.46Z" transform="translate(-80.74 -195.27)"/><path class="cls-2" d="M187.47,611.06l-.8-.77c11.76-12.13,24-24.09,36.43-35.56C235.8,563,249,551.49,262.36,540.5l.7.86c-13.33,11-26.52,22.48-39.2,34.19C211.46,587,199.21,599,187.47,611.06Z" transform="translate(-80.74 -195.27)"/><path class="cls-2" d="M262.48,541.43a68.44,68.44,0,0,1-37.24-43.51l1.08-.3a67.3,67.3,0,0,0,36.62,42.8Z" transform="translate(-80.74 -195.27)"/><path class="cls-2" d="M147.86,570.7l-.06-1.11a303,303,0,0,0,87.33-17.66c9.26-3.36,18.46-7.23,27.34-11.5l.48,1C254,545.72,244.8,549.6,235.51,553A304.43,304.43,0,0,1,147.86,570.7Z" transform="translate(-80.74 -195.27)"/><path class="cls-2" d="M292.66,555.53,283,551l-20.54-9.6.48-1,20.53,9.6,9.65,4.5Z" transform="translate(-80.74 -195.27)"/><path class="cls-2" d="M281.41,650c-3.52-18.78-7-37.82-10.3-56.62-3.06-17.38-6.07-35-8.95-52.38l1.1-.18c2.88,17.37,5.89,35,8.95,52.37C275.52,612,279,631,282.5,649.81Z" transform="translate(-80.74 -195.27)"/><path class="cls-2" d="M233,638.45l-1.09-.23a540.7,540.7,0,0,1,16.74-61.5c4.08-12.1,8.64-24.22,13.58-36l1,.43c-4.92,11.77-9.48,23.86-13.55,35.94A541,541,0,0,0,233,638.45Z" transform="translate(-80.74 -195.27)"/><path class="cls-2" d="M224.32,491.84c-1.26-5.2-2.74-10.4-4.42-15.47a194.76,194.76,0,0,0-7.4-19l1-.46A198.59,198.59,0,0,1,221,476c1.68,5.1,3.18,10.33,4.44,15.56Z" transform="translate(-80.74 -195.27)"/><path class="cls-2" d="M212.87,457.69c-7.88-2.1-15.81-4.42-23.59-6.89a529.72,529.72,0,0,1-92-39.22l.53-1a528.31,528.31,0,0,0,91.77,39.14c7.76,2.46,15.68,4.78,23.54,6.87Z" transform="translate(-80.74 -195.27)"/><path class="cls-2" d="M213.5,457.43l-1-.56a251.73,251.73,0,0,0,12.8-25.55,250.59,250.59,0,0,0,12.78-37.62l1.08.28a252.74,252.74,0,0,1-12.84,37.78A254,254,0,0,1,213.5,457.43Z" transform="translate(-80.74 -195.27)"/><path class="cls-2" d="M212.77,457.65A371.58,371.58,0,0,1,116.65,391l.77-.81a370.17,370.17,0,0,0,95.83,66.5Z" transform="translate(-80.74 -195.27)"/><path class="cls-2" d="M125.2,507.83l-.11-1.11a124,124,0,0,0,43.84-12.91,125.89,125.89,0,0,0,43.64-37l.89.66a127,127,0,0,1-44,37.33A125.28,125.28,0,0,1,125.2,507.83Z" transform="translate(-80.74 -195.27)"/><path class="cls-2" d="M212.58,457.5a178.66,178.66,0,0,1-36.31-77.37l1.1-.22a177.39,177.39,0,0,0,36.08,76.89Z" transform="translate(-80.74 -195.27)"/><path class="cls-2" d="M212.73,457.63a225,225,0,0,1-78.34-79.22l1-.57a223.95,223.95,0,0,0,78,78.83Z" transform="translate(-80.74 -195.27)"/><path class="cls-2" d="M212.63,457.55A235,235,0,0,1,155.55,373l1-.41a233.66,233.66,0,0,0,56.81,84.19Z" transform="translate(-80.74 -195.27)"/><path class="cls-2" d="M136.28,531.56l-.19-1.1a95.52,95.52,0,0,0,43.83-20.08c22-18,29.81-41.16,32.55-53.35l1.09.24c-2.77,12.33-10.73,35.74-32.93,54A96.64,96.64,0,0,1,136.28,531.56Z" transform="translate(-80.74 -195.27)"/><path class="cls-2" d="M188,458.42c-9.1,0-18.19-.28-27.21-.84A440.29,440.29,0,0,1,102.34,450l.22-1.09a439.69,439.69,0,0,0,58.29,7.56,440.12,440.12,0,0,0,52.13.12l.06,1.12C204.73,458.18,196.36,458.42,188,458.42Z" transform="translate(-80.74 -195.27)"/><path class="cls-2" d="M213.36,457.59l-.69-.88a134,134,0,0,0,38.42-48.82l1,.47a135,135,0,0,1-38.74,49.23Z" transform="translate(-80.74 -195.27)"/><path class="cls-2" d="M213.21,457.67l-.39-1A109,109,0,0,0,261.74,420l.89.67a110,110,0,0,1-49.42,37Z" transform="translate(-80.74 -195.27)"/><path class="cls-2" d="M136.05,471.29a226.71,226.71,0,0,1-36.18-2.91l.18-1.1a224.53,224.53,0,0,0,112.77-10.65l.38,1a225.75,225.75,0,0,1-77.15,13.62Z" transform="translate(-80.74 -195.27)"/><path class="cls-2" d="M110,486.8c-1.43,0-2.86,0-4.29,0l0-1.11a194.74,194.74,0,0,0,107-29l.58.94A195.4,195.4,0,0,1,110,486.8Z" transform="translate(-80.74 -195.27)"/><path class="cls-2" d="M213,457.24c-14.44-6.09-28.81-12.82-42.73-20A621.72,621.72,0,0,1,102.94,397l.63-.92a621.13,621.13,0,0,0,67.22,40.22c13.89,7.16,28.24,13.87,42.65,19.95Z" transform="translate(-80.74 -195.27)"/><path class="cls-2" d="M317.34,477.54a273.44,273.44,0,0,1-104.43-20.72l.42-1A272.41,272.41,0,0,0,352,474.22l.14,1.1A274.15,274.15,0,0,1,317.34,477.54Z" transform="translate(-80.74 -195.27)"/><path class="cls-2" d="M213,457.71a282.57,282.57,0,0,1-108.35-28.95l.5-1a281.23,281.23,0,0,0,107.92,28.83Z" transform="translate(-80.74 -195.27)"/></g></g><circle id="sandy_beaches" data-name="sandy beaches" class="cls-3" cx="406.51" cy="281.71" r="6.33"/><circle id="tidal_flats" data-name="tidal flats" class="cls-4" cx="332.12" cy="337.42" r="6.33"/><circle id="sand_dunes" data-name="sand dunes" class="cls-5" cx="185.25" cy="121.12" r="21.26"/><circle id="eelgrass_beds" data-name="eelgrass beds" class="cls-6" cx="181.97" cy="345.65" r="6.33"/><circle id="rocky_shores" data-name="rocky shores" class="cls-7" cx="132.28" cy="261.88" r="6.33"/><rect class="cls-8" x="335.39" y="218.93" width="16.46" height="16.88"/><g class="cls-9"><text class="cls-10" transform="translate(336.69 223)">Marsh </text><text class="cls-10" transform="translate(336.99 229)">wrens</text></g><rect class="cls-8" x="361.88" y="235.5" width="20.58" height="7.28"/><text class="cls-10" transform="translate(363 239.3)">Mussels</text><rect class="cls-8" x="375.91" y="219.25" width="26.27" height="6.12"/><text class="cls-10" transform="translate(377.13 223)">Goldenrod</text><rect class="cls-8" x="388.04" y="202.58" width="30.49" height="7.28"/><text class="cls-10" transform="translate(389.9 206.32)">Blue herons</text><rect class="cls-8" x="399.65" y="188.01" width="21.31" height="8.44"/><text class="cls-10" transform="translate(453.37 180.85)">Bitterns</text><rect class="cls-8" x="398.07" y="171.87" width="25.11" height="13.51"/><g class="cls-9"><text class="cls-10" transform="translate(444.72 149.06)">Seaside </text><text class="cls-10" transform="translate(443.52 155.06)">sparrows</text></g><rect class="cls-8" x="392.26" y="159" width="28.49" height="8.44"/><text class="cls-10" transform="translate(432.77 130.62)">Blackrush</text><rect class="cls-8" x="384.67" y="142.12" width="28.07" height="10.55"/><text class="cls-10" transform="translate(424.61 112.64)">Ospreys</text><rect class="cls-8" x="374.22" y="136.1" width="22.26" height="8.44"/><text class="cls-10" transform="translate(413.57 93.74)">Mollusks</text><rect class="cls-8" x="370.95" y="116.58" width="31.02" height="8.23"/><text class="cls-10" transform="translate(394.44 77.17)">Glasswort</text><rect class="cls-8" x="372.11" y="97.59" width="19.73" height="7.49"/><text class="cls-10" transform="translate(377.13 60.45)">Reeds</text><rect class="cls-8" x="350.9" y="95.37" width="20.79" height="11.82"/><text class="cls-10" transform="translate(356.71 49.07)">Grass</text><rect class="cls-8" x="342.67" y="80.39" width="28.07" height="13.51"/><text class="cls-10" transform="translate(331.38 33.79)">Shorebirds</text><rect class="cls-8" x="261.64" y="124.71" width="19.63" height="5.91"/><text class="cls-10" transform="translate(260.79 123.33)">Cattails</text><rect class="cls-8" x="259.21" y="136.21" width="24.59" height="12.66"/><g class="cls-9"><text class="cls-10" transform="translate(254.58 136.91)">Clapper </text><text class="cls-10" transform="translate(258.98 142.91)">rails</text></g><rect class="cls-8" x="245.39" y="148.24" width="23.64" height="10.02"/><text class="cls-10" transform="translate(245.7 154.2)">Clams</text><rect class="cls-8" x="243.91" y="163.75" width="23.11" height="10.76"/><g class="cls-9"><text class="cls-10" transform="translate(249.28 167.67)">Panic </text><text class="cls-10" transform="translate(249.28 173.67)">grass</text></g><rect class="cls-8" x="240.22" y="182.74" width="26.91" height="8.23"/><text class="cls-10" transform="translate(241.14 186.53)">Protozoans</text><rect class="cls-8" x="229.93" y="197.51" width="31.55" height="13.51"/><g class="cls-9"><text class="cls-10" transform="translate(232.05 201.42)">Sharp-tailed </text><text class="cls-10" transform="translate(235.35 207.42)">sparrows</text></g><rect class="cls-8" x="268.5" y="364.33" width="19.2" height="11.4"/><g class="cls-9"><text class="cls-10" transform="translate(270.77 368.22)">Hermit </text><text class="cls-10" transform="translate(271.77 374.22)">crabs</text></g><rect class="cls-8" x="278.31" y="380.79" width="14.98" height="9.39"/><text class="cls-10" transform="translate(279.61 384.68)"><tspan class="cls-11">Y</tspan><tspan x="2.88" y="0">east</tspan></text><rect class="cls-8" x="289.07" y="388.81" width="25.53" height="11.61"/><g class="cls-9"><text class="cls-10" transform="translate(269.82 463.82)"><tspan class="cls-12">T</tspan><tspan x="2.87" y="0">rumpet </tspan></text><text class="cls-10" transform="translate(271.72 469.82)">worms</text></g><rect class="cls-8" x="210.78" y="364.01" width="32.5" height="5.59"/><text class="cls-10" transform="translate(216.36 361.43)">Brant geese</text><rect class="cls-8" x="220.17" y="379.52" width="31.13" height="7.07"/><text class="cls-10" transform="translate(240.27 392.82)">Pipe fish</text><path class="cls-8" d="M301,588.09h25.33v7.28H301Z" transform="translate(-80.74 -195.27)"/><text class="cls-10" transform="translate(240.27 418.72)">Jelly fish</text><rect class="cls-8" x="196.64" y="403.27" width="27.12" height="12.13"/><g class="cls-9"><text class="cls-10" transform="translate(229.5 437.76)">Winter </text><text class="cls-10" transform="translate(227.4 443.76)">flounder</text></g><g class="cls-9"><text class="cls-10" transform="translate(201.54 460.82)">Canada </text><text class="cls-10" transform="translate(203.44 466.82)">geese</text></g><g class="cls-9"><text class="cls-10" transform="translate(173.66 457.82)">Brittle </text><text class="cls-10" transform="translate(174.66 463.82)">stars</text></g><g class="cls-9"><text class="cls-10" transform="translate(144.06 448.66)">Black </text><text class="cls-10" transform="translate(144.76 454.66)">duck</text></g><rect class="cls-8" x="110.12" y="423.52" width="24.48" height="6.75"/><text class="cls-10" transform="translate(112.75 437.76)">Scallops</text><rect class="cls-8" x="85.85" y="413.4" width="27.96" height="6.86"/><text class="cls-10" transform="translate(88.34 421.41)">Molluscs</text><rect class="cls-8" x="68.23" y="394.09" width="23.53" height="12.03"/><g class="cls-9"><text class="cls-10" transform="translate(75.71 397.96)">Bay </text><text class="cls-10" transform="translate(70.71 403.96)">scallops</text></g><rect class="cls-8" x="63.58" y="373.3" width="20.58" height="12.03"/><g class="cls-9"><text class="cls-10" transform="translate(51.37 374.26)"><tspan class="cls-12">W</tspan><tspan x="4.54" y="0">ater </tspan></text><text class="cls-10" transform="translate(53.47 380.26)">fowl</text></g><rect class="cls-8" x="60" y="354.41" width="22.26" height="10.87"/><text class="cls-10" transform="translate(96.08 345.59)">Eelgrass</text><rect class="cls-8" x="124.15" y="152.67" width="25.85" height="6.01"/><text class="cls-10" transform="translate(108.96 155.67)">Bearberry</text><rect class="cls-8" x="102.2" y="142.33" width="24.06" height="7.6"/><text class="cls-10" transform="translate(24.95 146.13)">Wild rose</text><rect class="cls-8" x="97.14" y="126.71" width="28.38" height="10.76"/><g class="cls-9"><text class="cls-10" transform="translate(32.72 122.02)">Smooth </text><text class="cls-10" transform="translate(33.72 128.02)">sumac</text></g><rect class="cls-8" x="97.46" y="109.72" width="19.2" height="11.4"/><g class="cls-9"><text class="cls-10" transform="translate(46.57 101.24)">Beach </text><text class="cls-10" transform="translate(48.27 107.24)">plum</text></g><rect class="cls-8" x="90.91" y="88.62" width="25.96" height="15.62"/><g class="cls-9"><text class="cls-10" transform="translate(63.92 77.88)">Seaside </text><text class="cls-10" transform="translate(61.42 83.88)">goldenrod</text></g><rect class="cls-8" x="97.35" y="73.74" width="23.21" height="6.01"/><text class="cls-10" transform="translate(82.97 60.45)">Staghorn</text><rect class="cls-8" x="107.48" y="58.55" width="32.08" height="7.18"/><text class="cls-10" transform="translate(103.8 41.3)">Dusty miller</text><rect class="cls-8" x="129.74" y="39.03" width="21.95" height="17.62"/><g class="cls-9"><text class="cls-10" transform="translate(137.18 22.79)">Salty </text><text class="cls-10" transform="translate(136.38 28.79)">spray </text><text class="cls-10" transform="translate(137.78 34.79)">rose</text></g><rect class="cls-8" x="149.37" y="36.18" width="25.43" height="10.23"/><text class="cls-10" transform="translate(162.08 12.62)">Blueberry</text><path class="cls-8" d="M202.48,547.71" transform="translate(-80.74 -195.27)"/><path d="M233.11,340.16" transform="translate(-80.74 -195.27)"/><rect class="cls-8" x="415.62" y="228.29" width="24.7" height="9.8"/><g class="cls-9"><text class="cls-13" transform="translate(430.87 222)">Beach </text><text class="cls-13" transform="translate(432.77 228)">flees</text></g><rect class="cls-8" x="426.22" y="244.79" width="27.2" height="5.5"/><text class="cls-13" transform="translate(456.09 229)">Beetles</text><rect class="cls-8" x="440.32" y="253.29" width="26.1" height="6.4"/><rect class="cls-8" x="444.62" y="266.19" width="25.3" height="7.2"/><text class="cls-13" transform="translate(469.92 261.04)"><tspan class="cls-14">T</tspan><tspan x="2.5" y="0">erns</tspan></text><rect class="cls-8" x="449.32" y="276.09" width="22.3" height="11.3"/><g class="cls-9"><text class="cls-13" transform="translate(466.42 275.33)">Sand </text><text class="cls-13" transform="translate(466.42 281.33)">piper</text></g><rect class="cls-8" x="444.62" y="292.59" width="29.9" height="9.3"/><text class="cls-13" transform="translate(463.2 292.79)">Gulls</text><rect class="cls-8" x="444.62" y="302.69" width="27" height="13.4"/><g class="cls-9"><text class="cls-13" transform="translate(448.96 304.94)">Horseshoe </text><text class="cls-13" transform="translate(454.66 310.94)">crabs</text></g><rect class="cls-8" x="431.62" y="313.99" width="20" height="6.3"/><text class="cls-13" transform="translate(456.09 320.91)">Flies</text><rect class="cls-8" x="426.22" y="323.39" width="22.8" height="15.5"/><g class="cls-9"><text class="cls-13" transform="translate(447.12 331.38)">Ghost </text><text class="cls-13" transform="translate(446.12 337.38)">shrimp</text></g><rect class="cls-8" x="383.72" y="323.19" width="25.7" height="15.9"/><g class="cls-9"><text class="cls-13" transform="translate(384.79 326.8)">Unicellular </text><text class="cls-13" transform="translate(390.39 332.8)">algae</text></g><rect class="cls-8" x="354.02" y="296.19" width="28.8" height="14.4"/><g class="cls-9"><text class="cls-13" transform="translate(359.44 299.81)">Quahog </text><text class="cls-13" transform="translate(361.84 305.81)">clams</text></g><rect class="cls-8" x="271.22" y="276.69" width="20" height="6.3"/><text class="cls-13" transform="translate(274.38 280.24)">Crabs</text><rect class="cls-8" x="324.72" y="87.09" width="18.3" height="10.7"/><g class="cls-9"><text class="cls-13" transform="translate(310.46 16.79)">Marsh </text><text class="cls-13" transform="translate(310.36 22.79)">hawks</text></g><rect class="cls-8" x="305.42" y="95.99" width="24.7" height="16.7"/><g class="cls-9"><text class="cls-13" transform="translate(303.11 65.66)">Snowy </text><text class="cls-13" transform="translate(303.41 71.66)">egrets</text></g><rect class="cls-8" x="295.52" y="109.79" width="19.7" height="5.7"/><text class="cls-13" transform="translate(289.7 95.37)">Lobsters</text><rect class="cls-8" x="278.72" y="118.69" width="28.5" height="11.8"/><text class="cls-13" transform="translate(279.97 112.36)">Cordgrass</text><rect class="cls-8" x="324.52" y="291.59" width="31.5" height="14.8"/><g class="cls-9"><text class="cls-13" transform="translate(326.54 295.21)">Microscopic </text><text class="cls-13" transform="translate(334.04 301.21)">algae</text></g><rect class="cls-8" x="277.22" y="298.69" width="20" height="7.3"/><text class="cls-13" transform="translate(277.94 302.27)">Bacteria</text><rect class="cls-8" x="272.52" y="319.59" width="22.8" height="14.8"/><g class="cls-9"><text class="cls-13" transform="translate(276.84 323.21)">Winter </text><text class="cls-13" transform="translate(273.54 329.21)">flounders</text></g><rect class="cls-8" x="266.92" y="352.59" width="22.4" height="6.7"/><text class="cls-13" transform="translate(268.55 356.18)">Plankton</text><rect class="cls-8" x="306.72" y="401.99" width="25.4" height="7.3"/><text class="cls-13" transform="translate(299.95 457.82)">Lugworms</text><rect class="cls-8" x="333.62" y="400.19" width="28.6" height="16"/><g class="cls-9"><text class="cls-13" transform="translate(352.1 429.69)">Sea </text><text class="cls-13" transform="translate(343.8 435.69)">cucumbers</text></g><rect class="cls-8" x="405.32" y="364.79" width="20.9" height="10.4"/><text class="cls-13" transform="translate(428.02 368.02)">Whelks</text><rect class="cls-8" x="387.12" y="398.69" width="24.1" height="10.7"/><g class="cls-9"><text class="cls-13" transform="translate(388.99 402.26)">Soft shell </text><text class="cls-13" transform="translate(392.49 408.26)">clams</text></g><rect class="cls-8" x="397.32" y="385.39" width="15.9" height="7.4"/><text class="cls-13" transform="translate(414.57 393.62)">Gem</text><rect class="cls-8" x="399.12" y="375.49" width="28.9" height="11.2"/><text class="cls-13" transform="translate(407.69 379.1)">Razor clams</text><rect class="cls-8" x="363.72" y="401.99" width="23.5" height="17.5"/><g class="cls-9"><text class="cls-13" transform="translate(375.02 418.41)">Fringed </text><text class="cls-13" transform="translate(376.32 424.41)">worms</text></g><rect class="cls-8" x="403.62" y="355.29" width="29.8" height="7.1"/><text class="cls-13" transform="translate(424.61 356.18)">Clam worms</text><rect class="cls-8" x="408.92" y="347.79" width="22.9" height="6.9"/><text class="cls-13" transform="translate(411.22 347.79)">Diatoms</text><rect class="cls-8" x="229.42" y="338.29" width="14.8" height="7.3"/><text class="cls-13" transform="translate(230.18 341.92)">Snails</text><path class="cls-15" d="M370.11,472" transform="translate(-80.74 -195.27)"/><rect class="cls-8" x="39.12" y="328.69" width="28.7" height="14.1"/><g class="cls-9"><text class="cls-13" transform="translate(28.1 336.32)">Smooth </text><text class="cls-13" transform="translate(23.2 342.32)">perwinckles</text></g><rect class="cls-8" x="10.82" y="305.59" width="38.1" height="10.2"/><g class="cls-9"><text class="cls-13" transform="translate(17.75 311.16)">Common </text><text class="cls-13" transform="translate(14.55 317.16)">perwinckles</text></g><rect class="cls-8" x="17.32" y="288.79" width="21.8" height="9.6"/><text class="cls-13" transform="translate(8.74 292.79)">Algae</text><rect class="cls-8" x="19.22" y="267.49" width="24.3" height="14.1"/><g class="cls-9"><text class="cls-13" transform="translate(3.9 272.33)">Rock </text><text class="cls-13" transform="translate(3.2 278.33)">crabs</text></g><rect class="cls-8" x="6.42" y="251.49" width="21.8" height="11.8"/><g class="cls-9"><text class="cls-13" transform="translate(0 252.54)">Winged </text><text class="cls-13" transform="translate(3.9 258.54)">kelp</text></g><rect class="cls-8" x="6.02" y="232.99" width="22.7" height="13.6"/><g class="cls-9"><text class="cls-13" transform="translate(0.3 232.5)">Laminaria </text><text class="cls-13" transform="translate(6.1 238.5)">Kelp</text></g><rect class="cls-8" x="10.82" y="215.39" width="22.4" height="11.8"/><g class="cls-9"><text class="cls-13" transform="translate(3.8 214.22)">Irish </text><text class="cls-13" transform="translate(2.6 220.22)">moss</text></g><rect class="cls-8" x="13.92" y="199.09" width="22.7" height="15.7"/><g class="cls-9"><text class="cls-13" transform="translate(6.02 194.7)">Brown </text><text class="cls-13" transform="translate(6.82 200.7)">algae</text></g><rect class="cls-8" x="19.22" y="181.59" width="28.2" height="15.7"/><g class="cls-9"><text class="cls-13" transform="translate(31.12 185.99)">Sea </text><text class="cls-13" transform="translate(23.72 191.99)">anemones</text></g><rect class="cls-8" x="38.72" y="169.79" width="22.7" height="17.3"/><g class="cls-9"><text class="cls-13" transform="translate(42.47 173.79)">Knotted </text><text class="cls-13" transform="translate(44.57 179.79)">wrack</text></g><rect class="cls-8" x="61.42" y="171.29" width="23.4" height="14.4"/><text class="cls-13" transform="translate(65.42 173.41)">Mussels</text><rect class="cls-8" x="84.82" y="171.29" width="26.2" height="10.7"/><g class="cls-9"><text class="cls-13" transform="translate(91.72 174.85)">Great </text><text class="cls-13" transform="translate(85.92 180.85)">cormorantt</text></g><rect class="cls-8" x="107.12" y="194.09" width="24.7" height="10.1"/><g class="cls-9"><text class="cls-13" transform="translate(113.78 197.7)">Rock </text><text class="cls-13" transform="translate(108.38 203.7)">barnacles</text></g><rect class="cls-8" x="152.02" y="192.59" width="23.9" height="5.7"/><text class="cls-13" transform="translate(152.15 196.21)">Rockweed</text><rect class="cls-8" x="163.92" y="206.39" width="29.5" height="6.3"/><text class="cls-13" transform="translate(169.8 209.97)">Limpets</text><rect class="cls-8" x="180.52" y="219.99" width="25.8" height="6.8"/><text class="cls-13" transform="translate(181.62 223.56)">Dog whelk</text><rect class="cls-8" x="170.67" y="35.85" width="23.7" height="10.9"/><g class="cls-9"><text class="cls-13" transform="translate(173.01 39.4)">Quaking </text><text class="cls-13" transform="translate(174.21 45.4)">aspens</text></g><rect class="cls-8" x="182.52" y="28.79" width="32" height="10"/><text class="cls-13" transform="translate(196.83 7.29)">Honeysuckles</text><rect class="cls-8" x="135.92" y="178.99" width="24.9" height="7.1"/><text class="cls-13" transform="translate(139.6 182.57)">Lichens</text><rect class="cls-8" x="128.12" y="297.79" width="31" height="8.2"/><text class="cls-13" transform="translate(130.45 301.37)">Sea urchins</text><rect class="cls-8" x="223.02" y="293.09" width="18" height="8"/><text class="cls-13" transform="translate(224.24 296.65)"><tspan class="cls-16">W</tspan><tspan x="4.63" y="0">orms</tspan></text><rect class="cls-8" x="185.82" y="245.99" width="13.1" height="7.6"/><text class="cls-13" transform="translate(187.84 249.56)">Fish</text><text class="cls-10" transform="translate(305.65 299.23)">Fungi</text><rect class="cls-8" x="201.49" y="46.2" width="26.17" height="14.24"/><g class="cls-9"><text class="cls-10" transform="translate(242.39 4.29)">Beach </text><text class="cls-10" transform="translate(239.89 10.29)">heathers</text></g><text class="cls-10" transform="translate(249.28 28.79)">Poison ivy</text><rect class="cls-8" x="233.57" y="79.33" width="27.22" height="6.33"/><text class="cls-10" transform="translate(254.58 53.32)">Bear oaks</text><rect class="cls-8" x="239.9" y="94" width="31.13" height="6.65"/><text class="cls-10" transform="translate(254.58 76.75)">Bayberry</text><rect class="cls-8" x="225.66" y="115.1" width="20.05" height="13.29"/><g class="cls-9"><text class="cls-10" transform="translate(228.45 119.02)"><tspan class="cls-11">Y</tspan><tspan x="2.88" y="0">oung </tspan></text><text class="cls-10" transform="translate(230.35 125.02)">oaks</text></g><rect class="cls-8" x="210.36" y="131.88" width="23.53" height="10.34"/><g class="cls-9"><text class="cls-10" transform="translate(216.66 135.7)">Gray </text><text class="cls-10" transform="translate(216.36 141.7)">birch</text></g><rect class="cls-8" x="195.37" y="157.73" width="27.43" height="11.4"/><text class="cls-10" transform="translate(196.83 161.59)">Beach pea</text><rect class="cls-8" x="161.29" y="159.21" width="30.81" height="12.45"/><g class="cls-9"><text class="cls-10" transform="translate(166.04 163.15)">American </text><text class="cls-10" transform="translate(162.54 169.15)">beach-grass</text></g><rect class="cls-8" x="194.53" y="292.58" width="18.78" height="7.7"/><text class="cls-10" transform="translate(196.04 296.36)">Shrimp</text><circle id="sand_dunes-2" data-name="sand dunes" class="cls-17" cx="327.21" cy="185.99" r="21.26"/><circle id="sand_dunes-3" data-name="sand dunes" class="cls-18" cx="406.42" cy="280.29" r="21.26"/><circle id="sand_dunes-4" data-name="sand dunes" class="cls-19" cx="332.56" cy="334.39" r="21.26"/><circle id="sand_dunes-5" data-name="sand dunes" class="cls-20" cx="181.97" cy="347.63" r="21.26"/><circle id="sand_dunes-6" data-name="sand dunes" class="cls-21" cx="130.45" cy="261.88" r="21.26"/><text class="cls-22" transform="translate(174.85 118.97)">Sand <tspan x="-2.22" y="9.6">Dunes</tspan></text><text class="cls-22" transform="translate(395.35 276.88)">Sandy <tspan x="-4.22" y="9.6">Beaches</tspan></text><text class="cls-22" transform="translate(166.41 347.07)">Eelgrass <tspan x="6.45" y="9.6">Beds</tspan></text><text class="cls-22" transform="translate(319.9 182.05)">Salt <tspan x="-8.45" y="9.6">Marshes</tspan></text><text class="cls-22" transform="translate(324.13 331.37)"><tspan class="cls-23">T</tspan><tspan x="4.59" y="0">idal </tspan><tspan x="-0.14" y="9.6">Flats</tspan></text><text class="cls-22" transform="translate(119.33 259.35)">Rocky <tspan x="-1.56" y="9.6">Shores</tspan></text></svg>