<?xml version="1.0" encoding="utf-8"?>
<!-- Generator: Adobe Illustrator 24.1.3, SVG Export Plug-In . SVG Version: 6.00 Build 0)  -->
<svg version="1.1" xmlns="http://www.w3.org/2000/svg" xmlns:xlink="http://www.w3.org/1999/xlink" x="0px" y="0px"
	 viewBox="0 0 581.7 513.3" style="enable-background:new 0 0 581.7 513.3;" xml:space="preserve">
<style type="text/css">
	.st0{display:none;}
	.st1{display:inline;fill:#1F1F1F;}
	.st2{fill:none;stroke:#FFFFFF;stroke-miterlimit:10;}
	.st3{fill:#FFFFFF;stroke:#FFFFFF;stroke-miterlimit:10;}
	.st4{fill:#DCCB7C;}
	.st5{fill:#E994D1;}
	.st6{fill:#D85A2B;}
	.st7{fill:#6696E2;}
	.st8{fill:#A74798;}
	.st9{fill:#38A024;}
</style>
<g id="Layer_3" class="st0">
	<rect x="-0.5" y="-35" class="st1" width="582" height="556.5"/>
</g>
<g id="lines">
	<path class="st2" d="M247,180c-10.4,6.5-29.4,20.2-44.5,44.5c-15.7,25.2-19.4,49.2-20.5,61.5c-0.7,6.6-2.5,31.9,14.5,55.5
		c12.4,17.2,28.4,24.7,35.5,27.5c17.3,5.4,45.5,11.9,80.5,9.5c32.7-2.2,58.4-11.3,74.5-18.5c8.6-1.7,23.9-5.9,39.5-17.5
		c17.9-13.3,26.7-29.4,30.5-37.5c2.4-10.8,6.8-38-5.5-68.5c-17.2-42.6-54.3-59.9-62.5-63.5c-15.5-5-40.9-11.2-72.5-9.5
		C285.8,165.1,261.8,173.5,247,180z"/>
	<path class="st2" d="M389.5,173.5"/>
	<path class="st2" d="M181.5,285.5"/>
	<path class="st2" d="M181.5,285.5c28.4,18.3,67.3,39.3,116,55c33.4,10.8,64,16.7,90,20"/>
	<path class="st2" d="M389.5,173.5c7.7,10.6,34.5,50,30,105c-3.4,41.6-23.1,70.4-32,82"/>
	<path class="st2" d="M247.5,180.5c-7.8,23.4-15.9,54.6-19,92c-3.2,38.9-0.2,72.1,4,97"/>
	<path class="st2" d="M389.5,173.5c-20.8,6.4-58,21.1-92,55c-54.5,54.4-63.1,120.6-65,141"/>
	<path class="st2" d="M247.5,180.5c19.2,7.7,71.2,31.6,106,89c21.9,36.1,28,70.7,30,91"/>
	<path class="st2" d="M389.5,173.5"/>
	<path class="st2" d="M181.5,285.5"/>
	<path class="st2" d="M247.5,180.5c29.8,4.1,83.7,15.7,138,54c34.1,24,57.3,50.8,72,71"/>
	<circle class="st3" cx="169.5" cy="258.5" r="7"/>
	<circle class="st3" cx="158" cy="282" r="3.5"/>
	<circle class="st3" cx="144.5" cy="268.5" r="3"/>
	<circle class="st3" cx="166" cy="313" r="3.5"/>
	<circle class="st3" cx="145" cy="306" r="3.5"/>
	<circle class="st3" cx="223" cy="192" r="2.5"/>
	<circle class="st3" cx="223" cy="169" r="2.5"/>
	<circle class="st3" cx="246.5" cy="157.5" r="5"/>
	<circle class="st3" cx="270" cy="170" r="2.5"/>
	<circle class="st3" cx="265" cy="154" r="1.5"/>
	<circle class="st3" cx="229" cy="154" r="1.5"/>
	<circle class="st3" cx="375" cy="149" r="1.5"/>
	<circle class="st3" cx="394" cy="143" r="4.5"/>
	<circle class="st3" cx="377.5" cy="140.5" r="2"/>
	<circle class="st3" cx="412" cy="154" r="3.5"/>
	<circle class="st3" cx="413.5" cy="180.5" r="2"/>
	<circle class="st3" cx="418" cy="168" r="2.5"/>
	<circle class="st3" cx="473.5" cy="287.5" r="2"/>
	<circle class="st3" cx="451" cy="326" r="3.5"/>
	<circle class="st3" cx="474.5" cy="328.5" r="6"/>
	<circle class="st3" cx="482" cy="301" r="1.5"/>
	<circle class="st3" cx="463.5" cy="342.5" r="2"/>
	<circle class="st3" cx="407" cy="362" r="1.5"/>
	<circle class="st3" cx="401" cy="387" r="4.5"/>
	<circle class="st3" cx="378.5" cy="385.5" r="3"/>
	<circle class="st3" cx="366" cy="373" r="3.5"/>
	<circle class="st3" cx="413.5" cy="375.5" r="3"/>
	<circle class="st3" cx="254.5" cy="385.5" r="3"/>
	<circle class="st3" cx="239" cy="395" r="3.5"/>
	<circle class="st3" cx="217.5" cy="386.5" r="4"/>
	<circle class="st3" cx="211.5" cy="365.5" r="3"/>
	<circle class="st3" cx="200" cy="377" r="4.5"/>
	<line class="st2" x1="181.5" y1="285.5" x2="169.5" y2="258.5"/>
	<line class="st2" x1="181.5" y1="285.5" x2="147.5" y2="268.5"/>
	<line class="st2" x1="181.5" y1="285.5" x2="161.5" y2="282.5"/>
	<line class="st2" x1="181.5" y1="285.5" x2="145.5" y2="306.5"/>
	<line class="st2" x1="181.5" y1="285.5" x2="166.5" y2="313.5"/>
	<line class="st2" x1="270.5" y1="169.5" x2="247.5" y2="180.5"/>
	<line class="st2" x1="265.5" y1="153.5" x2="247.5" y2="180.5"/>
	<line class="st2" x1="246.5" y1="157.5" x2="247.5" y2="180.5"/>
	<line class="st2" x1="228.5" y1="154.5" x2="247.5" y2="180.5"/>
	<line class="st2" x1="223.5" y1="169.5" x2="247.5" y2="180.5"/>
	<line class="st2" x1="223.5" y1="192.5" x2="247.5" y2="180.5"/>
	<line class="st2" x1="389.5" y1="173.5" x2="413.5" y2="180.5"/>
	<line class="st2" x1="389.5" y1="173.5" x2="418.5" y2="168.5"/>
	<line class="st2" x1="389.5" y1="173.5" x2="412.5" y2="154.5"/>
	<line class="st2" x1="389.5" y1="173.5" x2="394.5" y2="143.5"/>
	<line class="st2" x1="389.5" y1="173.5" x2="377.5" y2="140.5"/>
	<line class="st2" x1="389.5" y1="173.5" x2="375.5" y2="149.5"/>
	<line class="st2" x1="474.5" y1="328.5" x2="457.5" y2="305.5"/>
	<line class="st2" x1="463.5" y1="342.5" x2="457.5" y2="305.5"/>
	<line class="st2" x1="451.5" y1="326.5" x2="457.5" y2="305.5"/>
	<line class="st2" x1="482.5" y1="301.5" x2="457.5" y2="305.5"/>
	<line class="st2" x1="473.5" y1="287.5" x2="457.5" y2="305.5"/>
	<line class="st2" x1="383.5" y1="360.5" x2="366.5" y2="373.5"/>
	<line class="st2" x1="383.5" y1="360.5" x2="378.5" y2="385.5"/>
	<line class="st2" x1="383.5" y1="360.5" x2="401.5" y2="387.5"/>
	<line class="st2" x1="383.5" y1="360.5" x2="413.5" y2="375.5"/>
	<line class="st2" x1="383.5" y1="360.5" x2="407.5" y2="362.5"/>
	<line class="st2" x1="232" y1="372.6" x2="254.5" y2="385.5"/>
	<line class="st2" x1="232" y1="372.6" x2="239.5" y2="395.5"/>
	<line class="st2" x1="232" y1="372.6" x2="217.5" y2="386.5"/>
	<line class="st2" x1="232" y1="372.6" x2="200.5" y2="377.5"/>
	<line class="st2" x1="232" y1="372.6" x2="211.5" y2="365.5"/>
	<circle class="st3" cx="243.5" cy="320.5" r="7"/>
	<circle class="st3" cx="227" cy="312" r="3.5"/>
	<circle class="st3" cx="309" cy="218" r="4.5"/>
	<circle class="st3" cx="328.5" cy="203.5" r="5"/>
	<circle class="st3" cx="420" cy="263" r="4.5"/>
</g>
<g id="Layer_1">
	<circle class="st4" cx="182.5" cy="286.5" r="13.5"/>
	<circle class="st5" cx="389.5" cy="173.5" r="13.5"/>
	<circle class="st6" cx="247.5" cy="180.5" r="13.5"/>
	<circle class="st7" cx="232.5" cy="369.5" r="13.5"/>
	<circle class="st8" cx="383.5" cy="360.5" r="13.5"/>
	<circle class="st9" cx="457.5" cy="305.5" r="13.5"/>
</g>
</svg>
